<svg width="32" height="22" viewBox="0 0 32 22" fill="none" xmlns="http://www.w3.org/2000/svg">
<path fill-rule="evenodd" clip-rule="evenodd" d="M11.3865 16.3845C11.3865 13.5195 9.06398 11.197 6.19899 11.197H6.19868C4.70811 11.1986 3.36463 11.8283 2.41856 12.8356V10.3912L3.79847 9.01127H12.3808L20.7485 11.5234V15.4234C20.1895 15.0189 19.5025 14.7804 18.7598 14.7804V14.7804H18.7596C17.1264 14.7823 15.7629 15.9358 15.4377 17.4727H11.2722C11.3471 17.1218 11.3865 16.7578 11.3865 16.3845ZM10.7481 18.8798C9.86596 20.4845 8.15947 21.5721 6.19899 21.5721C3.33399 21.5721 1.01144 19.2495 1.01144 16.3845V9.8077L2.80312 8.01599V1.83502H0.814453V0.427917H2.80312H12.2045H14.2758V1.83502H12.3812L13.1054 7.60419H13.3752V7.84043L18.0187 9.23439V6.51601C18.0219 5.1373 19.136 4.01986 20.5131 4.01134H21.452V5.41848H20.514C19.9123 5.42484 19.4268 5.91357 19.4258 6.51595V6.51603L19.4258 9.6568L22.1565 10.4766L22.1556 18.1763C22.1556 18.1763 22.1556 18.1763 22.1556 18.1763C22.1556 20.0518 20.6352 21.5721 18.7598 21.5721C17.1255 21.5721 15.7609 20.4177 15.4369 18.8798H10.7481ZM20.7485 18.1763C20.7485 17.078 19.8581 16.1876 18.7598 16.1876C17.6614 16.1876 16.7711 17.0779 16.7711 18.1763C16.7721 19.2742 17.6618 20.1639 18.7597 20.1649H18.7598V20.165C19.8581 20.165 20.7485 19.2746 20.7485 18.1763C20.7485 18.1763 20.7485 18.1763 20.7485 18.1763ZM11.6869 7.60419L10.9625 1.83504H4.21028V7.60419H11.6869ZM2.41856 16.3845C2.41856 16.3845 2.41856 16.3845 2.41856 16.3846C2.42124 18.4714 4.1122 20.1623 6.19874 20.165L6.19899 20.165C8.28687 20.165 9.97941 18.4724 9.97941 16.3846C9.97941 14.2967 8.28685 12.6041 6.19899 12.6041C4.11111 12.6041 2.41857 14.2967 2.41856 16.3845ZM7.92649 4.24044C7.66103 4.23934 7.41476 4.37866 7.27896 4.60677C7.14317 4.83487 7.13807 5.11777 7.26556 5.35062L8.0921 6.8602C8.29102 7.22352 8.74681 7.35679 9.11013 7.15786C9.47345 6.95893 9.60672 6.50314 9.40779 6.13982L9.19198 5.74566L10.2469 5.75001C10.6611 5.75171 10.9982 5.41731 10.9999 5.0031C11.0016 4.58889 10.6672 4.25172 10.253 4.25002L7.92649 4.24044ZM22.7271 4.24043C22.3129 4.24043 21.9771 4.57622 21.9771 4.99043C21.9771 5.40464 22.3129 5.74043 22.7271 5.74043H25.6207L30.0985 15.8716L23.2499 15.8716C22.8357 15.8716 22.4999 16.2074 22.4999 16.6216C22.4999 17.0358 22.8357 17.3716 23.2499 17.3716L31.25 17.3716C31.5036 17.3716 31.74 17.2434 31.8784 17.0309C32.0169 16.8184 32.0385 16.5504 31.936 16.3184L26.7951 4.68723C26.6751 4.41563 26.4061 4.24043 26.1091 4.24043H22.7271ZM13.7499 4.25001C13.3357 4.25001 12.9999 4.5858 12.9999 5.00001C12.9999 5.41423 13.3357 5.75001 13.7499 5.75001H17.2499C17.6642 5.75001 17.9999 5.41423 17.9999 5.00001C17.9999 4.5858 17.6642 4.25001 17.2499 4.25001H13.7499Z" fill="#4B4B4B"/>
</svg>
