<svg width="25" height="24" viewBox="0 0 25 24" fill="none" xmlns="http://www.w3.org/2000/svg">
<path d="M17.9139 2.67849C17.2424 2.16779 16.5984 1.67462 15.9506 1.18521C13.8571 -0.395695 11.1291 -0.395694 9.04622 1.18896C6.96589 2.77174 4.88493 4.35452 2.81086 5.94543C1.28128 7.11828 0.50522 8.67039 0.506471 10.6055C0.508349 13.1978 0.505219 15.7907 0.5096 18.383C0.510226 18.6709 0.522116 18.9619 0.567803 19.2454C0.938308 21.5435 2.6375 23.3479 4.90809 23.8648C5.11337 23.9118 5.3199 23.9499 5.52643 23.9919C5.55334 23.9975 5.58087 24 5.60778 24H19.3928C19.4203 24 19.4479 23.9975 19.4748 23.9919C19.6882 23.9487 19.9022 23.9074 20.115 23.8604C22.4113 23.3497 24.1468 21.4371 24.4497 19.0883C24.4516 19.0739 24.4566 19.0608 24.4628 19.047C24.486 18.9976 24.4935 18.9419 24.4935 18.8874V9.97717C24.4935 9.92397 24.4822 9.87203 24.4634 9.82258C24.4566 9.80506 24.4509 9.78691 24.4484 9.76876C24.2394 8.24606 23.5397 6.99937 22.3399 6.03869C21.9131 5.69697 21.3317 5.75392 21.0006 6.1576C20.6614 6.57254 20.7265 7.15646 21.164 7.50881C22.1484 8.30114 22.6147 9.33943 22.6178 10.5893C22.6241 13.1509 22.6209 15.7118 22.6172 18.2735C22.6166 18.5144 22.6028 18.7591 22.5615 18.9957C22.2435 20.8175 20.6939 22.1212 18.8414 22.1224C14.6382 22.1256 10.4344 22.1243 6.23114 22.1212C5.78616 22.1206 5.34117 22.0567 4.9206 21.9115C3.38664 21.3827 2.3834 19.9927 2.3809 18.3091C2.37714 15.7319 2.37464 13.1552 2.38215 10.578C2.38591 9.29562 2.89534 8.25107 3.91986 7.46876C5.99769 5.88222 8.07614 4.29757 10.154 2.71166C11.584 1.62017 13.3702 1.60891 14.8128 2.68725C15.3692 3.10282 15.9181 3.5284 16.4701 3.94959C17.0721 4.40834 17.6723 4.86959 18.2763 5.32584C18.5886 5.56179 18.9315 5.61248 19.287 5.43599C19.6419 5.2595 19.844 4.95033 19.7958 4.52663C19.7977 4.47781 19.8002 4.42962 19.8021 4.38081C19.8215 4.23185 19.7595 4.08603 19.6419 3.99653L17.9139 2.67849Z" fill="#4B4B4B"/>
<path d="M11.7978 11.9939C11.7966 12.6735 11.2884 13.1792 10.6124 13.1736C9.95217 13.1686 9.45587 12.6604 9.45587 11.9889C9.45587 11.3386 9.97658 10.831 10.6406 10.8335C11.2846 10.8367 11.7991 11.3524 11.7978 11.9939Z" fill="#4B4B4B"/>
<path d="M15.5458 12.0037C15.5452 12.6677 15.0382 13.1747 14.3748 13.1747C13.7108 13.1747 13.2045 12.6677 13.2045 12.0037C13.2045 11.3384 13.7083 10.8358 14.3748 10.8358C15.0413 10.8352 15.5458 11.339 15.5458 12.0037Z" fill="#4B4B4B"/>
<path d="M10.615 14.5847C11.2853 14.5816 11.7935 15.0791 11.7972 15.7419C11.801 16.4084 11.299 16.9198 10.6375 16.9241C9.97159 16.9279 9.45965 16.4253 9.45589 15.7644C9.45214 15.0954 9.95094 14.5878 10.615 14.5847Z" fill="#4B4B4B"/>
<path d="M14.3748 14.5847C15.0413 14.5847 15.5458 15.0879 15.5458 15.7531C15.5452 16.4172 15.0382 16.9241 14.3748 16.9241C13.7108 16.9241 13.2045 16.4172 13.2045 15.7531C13.2038 15.0872 13.7083 14.5847 14.3748 14.5847Z" fill="#4B4B4B"/>
</svg>
