<svg width="29" height="22" viewBox="0 0 29 22" fill="none" xmlns="http://www.w3.org/2000/svg">
<path d="M22.9156 14.3748H23.7203V18.8744C23.7203 19.4711 23.4833 20.0434 23.0614 20.4653C22.6394 20.8873 22.0672 21.1243 21.4705 21.1243H14.721C14.1243 21.1243 13.552 20.8873 13.1301 20.4653C12.7081 20.0434 12.8518 17.6097 12.8518 17.013" stroke="#4B4B4B" stroke-width="1.49897" stroke-linecap="round" stroke-linejoin="round"/>
<path d="M18.0956 7.62524C18.0956 5.83515 17.3844 4.11838 16.1187 2.85259C14.8529 1.58681 13.1361 0.875702 11.346 0.875702H7.97125V3.12555C7.97125 4.91563 8.58401 6.74167 9.8498 8.00745M16.1084 9.87508H18.0956" stroke="#4B4B4B" stroke-width="1.49897" stroke-linecap="round" stroke-linejoin="round"/>
<path d="M18.0955 9.87508C18.0955 8.085 18.8066 6.36823 20.0724 5.10244C21.3382 3.83666 23.055 3.12555 24.8451 3.12555H28.2198V4.25047C28.2198 6.04056 27.5087 7.75733 26.2429 9.02311C24.9771 10.2889 23.2604 11 21.4703 11H18.0955" stroke="#4B4B4B" stroke-width="1.49897" stroke-linecap="round" stroke-linejoin="round"/>
<path d="M18.1049 11.0093L18.0955 7.62524" stroke="#4B4B4B" stroke-width="1.49897" stroke-linecap="round" stroke-linejoin="round"/>
<path d="M20.0802 14.1865H15.2449L12.8273 9.50839L8.59276 17.3053L6.7825 14.1865H1.59467" stroke="#4B4B4B" stroke-width="2" stroke-linecap="round" stroke-linejoin="round"/>
</svg>
